<svg xmlns="http://www.w3.org/2000/svg" viewBox="0 0 3432.62 4072.18"><defs><style>.cls-1{fill:#5a98b7;}.cls-2{fill:#fff;}.cls-3{fill:#f43737;}.cls-4{fill:#c42626;}</style></defs><g id="Layer_2" data-name="Layer 2"><g id="Layer_1-2" data-name="Layer 1"><path class="cls-1" d="M3432.62,927.14V3870.56c0,111.35-90.27,201.62-201.62,201.62H463.55c-111.35,0-201.62-90.27-201.62-201.62V201.62C261.93,90.27,352.2,0,463.55,0h2048Z"/><path class="cls-2" d="M3432.62,927.14H2709.51c-109.31,0-197.91-88.61-197.91-197.91V0Z"/><path class="cls-3" d="M261.93,718.39v1C115.23,731.76,0,854.72,0,1004.61V1872.5H261.93V1587.32H2200.87a79.16,79.16,0,0,0,79.16-79.16V797.55a79.16,79.16,0,0,0-79.16-79.16Z"/><path class="cls-4" d="M261.93,1587.31C115.23,1599.65,0,1722.61,0,1872.5s115.23,272.85,261.93,285.19Z"/><path class="cls-2" d="M579.76,885.57h205.6c106.35,0,184.76,57.86,184.76,159.74,0,111-81.89,165.48-190.33,165.48H678.48v209.35H579.76Zm98.72,246.08H771c60.72,0,99-24.31,99-84.33,0-57.93-41-82.48-96.47-82.48H678.48Z"/><path class="cls-2" d="M1058.21,885.57h195.93c153.68,0,252.33,99.56,252.33,258.81,0,163.6-96.45,275.76-257.1,275.76H1058.21Zm98.72,454.86h88.71c107.55,0,158.77-78.47,158.77-194.94,0-99.78-49.36-179.77-158.13-179.77h-89.35Z"/><path class="cls-2" d="M1608.35,885.57h351.22v81.78h-254.7V1114h238.81v81.34H1704.87v224.83h-96.52Z"/><rect class="cls-2" x="773.31" y="2226.09" width="2147.93" height="172.48" rx="86.24"/><rect class="cls-2" x="773.31" y="2765.1" width="2147.93" height="172.48" rx="86.24"/><rect class="cls-2" x="773.31" y="3304.1" width="2147.93" height="172.48" rx="86.24"/></g></g></svg>